<svg width="18" height="15" viewBox="0 0 18 15" fill="none" xmlns="http://www.w3.org/2000/svg">
<path d="M1.72267 14.9668H3.7881C4.62306 14.9668 5.05372 14.5361 5.05372 13.7012V8.00586C5.01856 7.8916 5.00978 7.77734 5.00978 7.64551C5.00978 7.52246 5.01856 7.39941 5.05372 7.29395V1.60742C5.05372 0.754883 4.62306 0.350586 3.7881 0.341797H1.72267C0.887705 0.341797 0.457041 0.772461 0.457041 1.60742V13.7012C0.448252 14.5361 0.878916 14.9668 1.72267 14.9668ZM16.1104 14.7295C16.8838 14.7295 17.5342 14.1494 17.5342 13.0771V2.23145C17.5342 1.15918 16.8926 0.579102 16.1192 0.579102C15.7324 0.579102 15.3984 0.693359 15.0117 0.913086L6.00294 6.2041C5.48439 6.52051 5.15919 6.86328 5.05372 7.29395V8.00586C5.16798 8.43652 5.48439 8.79688 6.00294 9.10449L15.0117 14.3955C15.3984 14.6152 15.7236 14.7295 16.1104 14.7295Z"/>
</svg>
