<svg width="26" height="15" viewBox="0 0 26 15" fill="none" xmlns="http://www.w3.org/2000/svg">
<path d="M11.583 14.7207C12.3564 14.7207 13.0068 14.1318 13.0068 13.0596V7.99707C13.1211 8.41895 13.4375 8.7793 13.9648 9.08691L22.9736 14.3779C23.3516 14.6064 23.6855 14.7207 24.0723 14.7207C24.8457 14.7207 25.4961 14.1318 25.4961 13.0596V2.22266C25.4961 1.15039 24.8457 0.561523 24.0723 0.561523C23.6855 0.561523 23.3516 0.675781 22.9736 0.904297L13.9648 6.19531C13.4375 6.50293 13.1211 6.85449 13.0068 7.27637V2.22266C13.0068 1.15039 12.3652 0.561523 11.5918 0.561523C11.1963 0.561523 10.8711 0.675781 10.4844 0.904297L1.47559 6.19531C0.807617 6.59082 0.482422 7.03906 0.482422 7.63672C0.482422 8.22559 0.816406 8.7002 1.47559 9.08691L10.4844 14.3779C10.8623 14.6064 11.1963 14.7207 11.583 14.7207Z"/>
</svg>
