<svg width="18" height="15" viewBox="0 0 18 15" fill="none" xmlns="http://www.w3.org/2000/svg">
<path d="M1.88086 14.7295C2.26758 14.7295 2.60156 14.6152 2.97949 14.3955L11.9883 9.10449C12.5068 8.79688 12.832 8.43652 12.9375 8.00586V13.7012C12.9375 14.5361 13.3682 14.9668 14.2031 14.9668H16.2686C17.1035 14.9668 17.5342 14.5361 17.5342 13.7012V1.60742C17.5342 0.754883 17.1035 0.341797 16.2686 0.341797H14.2031C13.3682 0.341797 12.9375 0.772461 12.9375 1.60742V7.29395C12.832 6.86328 12.5156 6.52051 11.9883 6.2041L2.97949 0.913086C2.59277 0.693359 2.26758 0.579102 1.87207 0.579102C1.09863 0.579102 0.457031 1.15918 0.457031 2.23145V13.0771C0.457031 14.1494 1.10742 14.7295 1.88086 14.7295Z"/>
</svg>
