<svg width="26" height="15" viewBox="0 0 26 15" fill="none" xmlns="http://www.w3.org/2000/svg">
<path d="M1.91895 14.7207C2.30566 14.7207 2.63965 14.6064 3.01758 14.3779L12.0264 9.08691C12.5449 8.7793 12.8701 8.41895 12.9844 7.98828V13.0596C12.9844 14.1318 13.6348 14.7207 14.4082 14.7207C14.7949 14.7207 15.1201 14.6064 15.5068 14.3779L24.5156 9.08691C25.1748 8.7002 25.5088 8.22559 25.5088 7.63672C25.5088 7.03906 25.1836 6.59082 24.5156 6.19531L15.5068 0.904297C15.1201 0.675781 14.7861 0.561523 14.3994 0.561523C13.626 0.561523 12.9844 1.15039 12.9844 2.22266V7.27637C12.8701 6.85449 12.5537 6.50293 12.0264 6.19531L3.01758 0.904297C2.63965 0.675781 2.30566 0.561523 1.91895 0.561523C1.14551 0.561523 0.495117 1.15039 0.495117 2.22266V13.0596C0.495117 14.1318 1.14551 14.7207 1.91895 14.7207Z"/>
</svg>
