<svg xmlns="http://www.w3.org/2000/svg" viewBox="0 0 26.21 18.87" width="26.21" height="18.87"><path d="M10.53,18.06c.64,0,1.1-.46,1.1-1.09V1.98c0-.63-.46-1.15-1.12-1.15-.46,0-.77,.2-1.26,.67l-4.17,3.91c-.06,.06-.15,.09-.24,.09H2.04c-1.33,0-2.04,.73-2.04,2.14v3.63c0,1.42,.71,2.14,2.04,2.14h2.79c.1,0,.19,.03,.24,.09l4.17,3.95c.44,.43,.82,.62,1.28,.62Zm4.59-4.46c.32,.22,.78,.16,1.04-.22,.75-.99,1.2-2.44,1.2-3.94s-.45-2.94-1.2-3.94c-.26-.38-.72-.46-1.04-.22-.4,.27-.46,.76-.16,1.16,.57,.78,.89,1.87,.89,3s-.33,2.21-.89,3c-.29,.41-.24,.88,.16,1.16Zm3.62,2.55c.36,.24,.81,.16,1.07-.21,1.25-1.72,1.98-4.08,1.98-6.49s-.72-4.79-1.98-6.49c-.26-.37-.71-.46-1.07-.21-.36,.24-.42,.7-.14,1.1,1.06,1.5,1.68,3.53,1.68,5.61s-.63,4.08-1.68,5.61c-.27,.4-.22,.86,.14,1.1Zm3.66,2.59c.33,.24,.81,.15,1.07-.24,1.71-2.47,2.73-5.61,2.73-9.05s-1.05-6.57-2.73-9.05c-.26-.4-.74-.49-1.07-.24-.37,.25-.42,.71-.16,1.11,1.51,2.24,2.47,5.05,2.47,8.18s-.96,5.96-2.47,8.18c-.26,.4-.21,.86,.16,1.11Z"/></svg>